<svg xmlns="http://www.w3.org/2000/svg" xmlns:xlink="http://www.w3.org/1999/xlink" xlink:href="#icon-logo" viewBox="0 0 31.89 31.89"><path d="M15.94 1.39A14.51 14.51 0 0129.21 9.9a13.79 13.79 0 011.29 6A14.57 14.57 0 015.64 26.24a14.56 14.56 0 0110.3-24.85m0-1.39a15.94 15.94 0 1015.95 15.94 15.64 15.64 0 00-5.25-11.78A15.66 15.66 0 0015.94 0z" fill="#1e3b8d"/><path d="M20.3 17.63l1.49 2.57a6.28 6.28 0 01-1.88 2.38 7.74 7.74 0 01-2 1.09c-.1 0-.79.2-.79.2-.1-.79-.2-1.58-.3-2.48-.1-1.39-.1-2.87-.1-4.26a8.08 8.08 0 01.59-3.37 2.56 2.56 0 01.89-.89 3.64 3.64 0 001.29-2.67 3.47 3.47 0 00-6.93 0 3.64 3.64 0 001.29 2.67 7.56 7.56 0 01.89.89 6.4 6.4 0 01.59 3.37c0 1.39 0 2.87-.1 4.26-.1.79-.2 1.68-.3 2.48 0 0-.69-.2-.79-.2a5.58 5.58 0 01-2-1.09 6.28 6.28 0 01-1.84-2.38l1.49-2.57H8.62a13.92 13.92 0 00.2 1.78 7.71 7.71 0 002.48 4 7 7 0 003 1.49 10.91 10.91 0 001.78.2 10.91 10.91 0 001.78-.2 8.39 8.39 0 003-1.49A8.67 8.67 0 0022.68 21a7.66 7.66 0 00.79-3.37zm-6.54-7v-.4a2.28 2.28 0 114.56 0v.4A8.44 8.44 0 0016 10.2a13.53 13.53 0 00-2.23.4z" fill="#1e3b8d"/></svg>