<?xml version="1.0" encoding="UTF-8" standalone="no"?>
<svg
   xmlns:dc="http://purl.org/dc/elements/1.1/"
   xmlns:cc="http://creativecommons.org/ns#"
   xmlns:rdf="http://www.w3.org/1999/02/22-rdf-syntax-ns#"
   xmlns:svg="http://www.w3.org/2000/svg"
   xmlns="http://www.w3.org/2000/svg"
   xmlns:xlink="http://www.w3.org/1999/xlink"
   xmlns:sodipodi="http://sodipodi.sourceforge.net/DTD/sodipodi-0.dtd"
   xmlns:inkscape="http://www.inkscape.org/namespaces/inkscape"
   xlink:href="#icon-logo"
   viewBox="0 0 31.89 31.89"
   version="1.1"
   id="svg6"
   sodipodi:docname="logo.svg"
   inkscape:version="0.92.3 (2405546, 2018-03-11)">
  <metadata
     id="metadata12">
    <rdf:RDF>
      <cc:Work
         rdf:about="">
        <dc:format>image/svg+xml</dc:format>
        <dc:type
           rdf:resource="http://purl.org/dc/dcmitype/StillImage" />
      </cc:Work>
    </rdf:RDF>
  </metadata>
  <defs
     id="defs10" />
  <sodipodi:namedview
     pagecolor="#ffffff"
     bordercolor="#666666"
     borderopacity="1"
     objecttolerance="10"
     gridtolerance="10"
     guidetolerance="10"
     inkscape:pageopacity="0"
     inkscape:pageshadow="2"
     inkscape:window-width="1920"
     inkscape:window-height="1033"
     id="namedview8"
     showgrid="false"
     inkscape:zoom="7.4004392"
     inkscape:cx="15.945"
     inkscape:cy="15.945"
     inkscape:window-x="-4"
     inkscape:window-y="-4"
     inkscape:window-maximized="1"
     inkscape:current-layer="svg6" />
  <path
     d="M15.94 1.39A14.51 14.51 0 0 1 29.21 9.9a13.79 13.79 0 0 1 1.29 6A14.57 14.57 0 0 1 5.64 26.24a14.56 14.56 0 0 1 10.3-24.85m0-1.39a15.94 15.94 0 1 0 15.95 15.94 15.64 15.64 0 0 0-5.25-11.78A15.66 15.66 0 0 0 15.94 0z"
     id="path2"
     style="fill:#1e3b8d;fill-opacity:1" />
  <path
     d="M20.3 17.63l1.49 2.57a6.28 6.28 0 0 1-1.88 2.38 7.74 7.74 0 0 1-2 1.09c-.1 0-.79.2-.79.2-.1-.79-.2-1.58-.3-2.48-.1-1.39-.1-2.87-.1-4.26a8.08 8.08 0 0 1 .59-3.37 2.56 2.56 0 0 1 .89-.89 3.64 3.64 0 0 0 1.29-2.67 3.47 3.47 0 0 0-6.93 0 3.64 3.64 0 0 0 1.29 2.67 7.56 7.56 0 0 1 .89.89 6.4 6.4 0 0 1 .59 3.37c0 1.39 0 2.87-.1 4.26-.1.79-.2 1.68-.3 2.48 0 0-.69-.2-.79-.2a5.58 5.58 0 0 1-2-1.09 6.28 6.28 0 0 1-1.84-2.38l1.49-2.57H8.62a13.92 13.92 0 0 0 .2 1.78 7.71 7.71 0 0 0 2.48 4 7 7 0 0 0 3 1.49 10.91 10.91 0 0 0 1.78.2 10.91 10.91 0 0 0 1.78-.2 8.39 8.39 0 0 0 3-1.49A8.67 8.67 0 0 0 22.68 21a7.66 7.66 0 0 0 .79-3.37zm-6.54-7v-.4a2.28 2.28 0 1 1 4.56 0v.4A8.44 8.44 0 0 0 16 10.2a13.53 13.53 0 0 0-2.23.4z"
     id="path4"
     style="fill:#1e3b8d;fill-opacity:1" />
</svg>
