<svg xmlns="http://www.w3.org/2000/svg" width="83.009cm" height="45.261cm"><defs><linearGradient id="a" x1="0%" x2="0%" y1="0%" y2="100%"><stop offset="1%" stop-color="#621CFA"/><stop offset="80%" stop-color="#5700FA"/></linearGradient><linearGradient id="b" x1="70.711%" x2="0%" y1="0%" y2="70.711%"><stop offset="0%" stop-color="#621CFA"/><stop offset="69%" stop-color="#5700FA"/></linearGradient><linearGradient id="c" x1="70.711%" x2="0%" y1="0%" y2="70.711%"><stop offset="1%" stop-color="#621CFA"/><stop offset="100%" stop-color="#5700FA"/></linearGradient></defs><path fill-rule="evenodd" fill="#5700FA" d="M280 402h1923v875.807L280 1283V402z"/><path fill-rule="evenodd" fill="#5F18FA" d="M2031.377 1162S228.948 704.841 107.549 761c-162.917 75.365-285.186-451.121 767.165-622.289C1927.065-32.458 2032.3 121.917 2032.3 121.917"/><path fill="url(#a)" d="M2031.377 1162S228.948 704.841 107.549 761c-162.917 75.365-285.186-451.121 767.165-622.289C1927.065-32.458 2032.3 121.917 2032.3 121.917"/><path fill-rule="evenodd" fill="#4B7DBB" d="M1144.4 1023.009l331.984-88.967-243.029-243.06-88.955 332.027z"/><path fill="url(#b)" d="M1144.4 1023.009l331.984-88.967-243.029-243.06-88.955 332.027z"/><path fill-rule="evenodd" fill="#4B7DBB" d="M2079.839 1241.366l187.131 29.642 86.015-168.835-133.971-133.988-168.813 86.026 29.638 187.155z"/><path fill="url(#c)" d="M2079.839 1241.366l187.131 29.642 86.015-168.835-133.971-133.988-168.813 86.026 29.638 187.155z"/><path fill-rule="evenodd" fill="#6018FA" d="M1907.844 180c89.176 0 161.468 72.292 161.468 161.469v378.062c0 89.177-72.292 161.469-161.468 161.469-89.177 0-161.469-72.292-161.469-161.469V341.469c0-89.177 72.292-161.469 161.469-161.469z"/><path fill-rule="evenodd" fill="#6019FA" d="M1437.885 0h.011c89.182 0 161.479 72.297 161.479 161.479v378.042c0 89.182-72.297 161.479-161.479 161.479h-.011c-89.182 0-161.479-72.297-161.479-161.479V161.479C1276.406 72.297 1348.703 0 1437.885 0z"/><path fill="url(#c)" d="M1437.885 0h.011c89.182 0 161.479 72.297 161.479 161.479v378.042c0 89.182-72.297 161.479-161.479 161.479h-.011c-89.182 0-161.479-72.297-161.479-161.479V161.479C1276.406 72.297 1348.703 0 1437.885 0z"/><path fill-rule="evenodd" fill="#6019FA" d="M835.979 585h.01c89.183 0 161.48 72.297 161.48 161.479v6.042c0 89.182-72.297 161.479-161.48 161.479h-.01C746.797 914 674.5 841.703 674.5 752.521v-6.042C674.5 657.297 746.797 585 835.979 585z"/><path fill="url(#a)" d="M835.979 585h.01c89.183 0 161.48 72.297 161.48 161.479v6.042c0 89.182-72.297 161.479-161.48 161.479h-.01C746.797 914 674.5 841.703 674.5 752.521v-6.042C674.5 657.297 746.797 585 835.979 585z"/></svg>