<svg xmlns="http://www.w3.org/2000/svg" xmlns:xlink="http://www.w3.org/1999/xlink" version="1.1" x="0px" y="0px" viewBox="0 0 500 500" xml:space="preserve"> <defs><radialGradient id="gradient-game-147-preset-1" x1="1" y1="0" x2="-2.220446049250313e-16" y2="0"><stop offset="0%" stop-color="#ffffff"/><stop offset="100%" stop-color="#fff1c0"/></radialGradient><linearGradient id="gradient-game-147-preset-3" x1="1" y1="0" x2="0.9999999999999999" y2="1.0000000000000002"><stop offset="0%" stop-color="#ffffff"/><stop offset="100%" stop-color="#fff1c0"/></linearGradient><radialGradient id="gradient-game-147-preset-2" x1="1" y1="0" x2="-2.220446049250313e-16" y2="0"><stop offset="49%" stop-color="#43c5e3"/><stop offset="99%" stop-color="#2bace2"/></radialGradient></defs> <path fill="#010101" d="M113.4,453.5c0,0-97.4,9.5-64.7,29.2c32.6,19.7,268.1,26.2,334.7-10C383.2,472.6,380.7,447.7,113.4,453.5z"/> <path fill="#010101" stroke="#010101" stroke-miterlimit="10" d="M81.9,242.6l5,10c0,0,19.2,35.6,62.1,37.1 c0,0-18.3,53.1-27.3,77.4s-29.9,101.1,45.4,104.2c0,0,38.6,4,54.3,3.5s34.4,7.7,60.7,0.1c0,0,59.6,7.6,82.4-6.1 c22.7-13.7,16.1-34.4,16.1-34.4s59.7-22.2,84.9-77.8c25.2-55.6,14.2-129.5-15.1-103.2c-29.3,26.3-32.4,84.4-45.5,102.6 c-13.1,18.3-24.3,26.8-24.3,26.8s-27.3-41-32.8-51.1s-15.1-50.5-15.1-50.5s47.8-17.2,59-43.7l3.1-6l-0.8-9.1 c0,0-20.7-46.2-20.7-67.5s-9.6-29.8-9.6-29.8s7.6-67.8,5-82.4C366.3,28,353.7-5.9,342,2.6s-75.4,68.7-75.4,68.7s-41-6.6-76.4,1.6 c-1.6,0.4-64.3-30.4-93.5-27.3c0,0-4.6,4-2.5,19.2s20.3,63.2,20.3,63.2s-23.9,51.1-29.3,69.8l-5,26.4L81.9,242.6z" style="display: inline;"/> <path stroke="#010101" stroke-miterlimit="10" d="M233.4,130c0,0-11.9,49.7-24,67.9 c-12.1,18.3-48.5,29.9-57.7,37.6c-9.1,7.6-24,23.3,2.3,51.9c8.3,9.1,102.9,11.8,123.6,6.5s64-13.9,58.7-29.2s-31.1-26.5-40-29.2 s-35.1-16.1-46-47.7S233.4,130,233.4,130z" fill="url(#gradient-game-147-preset-1)"/> <path fill="#010101" d="M235.1,207.8c0,0-17.5-1.3-14.1,3.2c3.4,4.6,10,7.4,10,7.4s15.4-4,15-7.1S235.1,207.8,235.1,207.8z" style="display: inline;"/> <path fill="#010101" d="M188.9,246c0,0,2.3,15.1,7.6,7.2c5.3-7.9,7.1-16.7,35.7-14.9c28.5,1.8,46.2,19.5,46.2,19.5 s6.8-4.2-12.1-14.4c-19-10.2-36.8-9.9-36.8-9.9l2.6-15.4h-3l-3.2,14.7C225.9,232.8,195.7,235.1,188.9,246z"/> <path fill="#F2F2F2" d="M125.4,178.8"/> <path fill="#FFFFFF" d="M192.7,176.4c0.1,0.7,0.1,1.6,0.1,2.4c0,14.5-11.7,26.2-26.2,26.2s-26.2-11.7-26.2-26.2 c0-1.1,0.1-2.2,0.2-3.2l-18-0.4c0,0-4.2,31.1,40.8,35.3c43.5,4,50.9-33.9,50.9-33.9L192.7,176.4z"/> <path fill="#FFFFFF" d="M340.3,175.4h-15.9c0,15.5-12.6,28.1-28.1,28.1s-28.1-12.6-28.1-28.1h-15.9c0,0,1.6,35.2,45.8,35.6 S340.3,175.4,340.3,175.4z"/> <path d="M144.6,176.4c0,0-1.1,25,22.9,25s22.2-25,22.2-25h-16.3c0,0,1.8,7.4-6.2,8.9c-8,1.4-7.1-8.9-7.1-8.9 " fill="url(#gradient-game-147-preset-2)"/> <path stroke="#010101" stroke-miterlimit="10" d="M272,175.4c0,0,1.8,24.6,24.6,24.6 c22.9,0,24.4-24.6,24.4-24.6h-19c0,0,1.1,9.1-5.8,9.4c-6.8,0.1-4.9-9.4-4.9-9.4H272z" fill="url(#gradient-game-147-preset-2)"/> <path d="M186.1,74.6c0,0-72.8-29.8-87.2-25.8c0,0,38.2,41,40.7,63.7C139.6,112.5,163.7,79.4,186.1,74.6z" fill="#522311"/> <path d="M304.2,80.6c0,0,29.6-68.6,39.4-71.6c0,0,14.2,14.7,17.2,29.8c0,0-5.9-34.7-13.9-33.6 C339,6.3,274.2,72,274.2,72S300.6,76.7,304.2,80.6z" fill="#522311"/> <path stroke="#010101" stroke-miterlimit="10" d="M390.2,230.1l-0.7-8.3c0,0-18.9-40.6-18.9-50.5 c0-9.9-1.6-36.4-11.4-46.2c-9.9-9.9-56.8-48.3-101.3-51.9s-69.8,0-100.1,25.8s-43.2,38-43.2,38s-19.3,36.5-22.3,52.1 s-7.2,33.2-7.2,33.2s0.7,15.5,2.6,24.6l1.6,3.8c0,0,16.3,32.2,61,36.8c0,0-15.4-15-15.4-31.2c-58.5-19.7-19.8-88.5-19.8-88.5h99.6 l0,0c4.7-11.4,17.3-43.5,18.3-52.4c0,0,11.5,39,17.4,51.8l98.4,1.6c0,0,25.8,32.8,16,53.1s-33.6,27.6-33.6,27.6 c7.8,6.1,12.9,14.2,9.4,23.8c0,0,38.4-21.7,45.8-32.2C390.3,234.6,390.2,230.1,390.2,230.1z" fill="url(#gradient-game-147-preset-1)"/> <path fill="none" stroke="#010101" stroke-width="4" stroke-miterlimit="10" d="M116.1,224c0,0-32.8-21.9-67.8-11.1"/> <path fill="none" stroke="#010101" stroke-width="4" stroke-miterlimit="10" d="M122.5,237.9c0,0-22.6-22.7-77.2,13.1"/> <path fill="none" stroke="#010101" stroke-width="4" stroke-miterlimit="10" d="M125.4,244c0,0-58.4,8.9-66.4,43.4"/> <path fill="none" stroke="#010101" stroke-width="4" stroke-miterlimit="10" d="M354.7,216.9c0,0,48.9-0.5,72.3,17.9"/> <path fill="none" stroke="#010101" stroke-width="4" stroke-miterlimit="10" d="M346.7,230.9c0,0,62.2,1.9,67.3,34.8"/> <path fill="none" stroke="#010101" stroke-width="4" stroke-miterlimit="10" d="M340.3,241c0,0,37.1-5,50.5,38.4"/> <path opacity="0.14" fill="#010101" d="M113.8,150.3c0,0,49.4-65.5,129.1-55.7s117.8,60.5,117.8,60.5 s-17.5-75.2-107.4-84.4S130.7,126.6,113.8,150.3z" style="display: inline;"/> <path fill="none" stroke="#010101" stroke-width="4" stroke-miterlimit="10" d="M304.7,130c0,0,54.7-46.2,94.5-38.2"/> <path fill="none" stroke="#010101" stroke-width="4" stroke-miterlimit="10" d="M317.5,132.2c0,0,55.9-28.8,81.7-10.1"/> <path fill="none" stroke="#010101" stroke-width="4" stroke-miterlimit="10" d="M340.3,141.8"/> <path fill="none" stroke="#010101" stroke-width="4" stroke-miterlimit="10" d="M334.6,141.8c0,0,43.5-12.1,64.7,2"/> <path fill="none" stroke="#010101" stroke-width="4" stroke-miterlimit="10" d="M131.8,152.5c0,0-34.4-18.3-63.2,5.5"/> <path fill="none" stroke="#010101" stroke-width="4" stroke-miterlimit="10" d="M147.4,140.4c0,0-30.2-31.1-67.4-16.3"/> <path fill="none" stroke="#010101" stroke-width="4" stroke-miterlimit="10" d="M92.2,105.4c0,0,55.9-1.1,75,35"/> <path stroke="#010101" stroke-width="4" stroke-miterlimit="10" d="M151,303.7c0,0-31.8,106.2,11.4,150.2 c0,0,3.4-16.7,27.5-24.3c24.1-7.6,37,2.3,37,2.3l-12.5-35.7c-9.6-3.6-9.9-3.4-17.9-9.9l9.1-7.6c0,0-12.1-5.3-16.7-11.4l9.9-6.8 l-8.9-15.1l11.2-12.1l3.8-31.8c0,0-45.2-1.1-50.1-7.9L151,303.7z" fill="url(#gradient-game-147-preset-1)"/> <path stroke="#010101" stroke-width="4" stroke-miterlimit="10" d="M267.8,302.9c0,0,15.1,88.8-26.5,127.5 c0,0,50.1-9.7,69.8,18.3c0,0,27.6-66.6,25.8-112.2s-11.4-48.9-11.4-48.9S285.2,301.4,267.8,302.9z" fill="url(#gradient-game-147-preset-1)"/> <path d="M163.5,458c0,0,6.1-17.8,25-24.3c19-6.5,34.2-4.4,44,1.7c0,0-14.3,22.2-10.9,35.4 c0,0-51.2-1.1-58-3.4S163.5,458,163.5,458z" fill="url(#gradient-game-147-preset-1)"/> <path d="M241.2,432.2c0,0-19.7,18.3-16.3,38.7c0,0,41.1,11.2,75.4-4.9c25.8-12.1-6.5-29.2-15.1-31.1 C276.5,432.9,241.2,432.2,241.2,432.2z" fill="url(#gradient-game-147-preset-1)"/> <path d="M209.4,303.8l-4.6,29.4l-10,11.7l8.8,15.6l-11.3,7.4c0,0,11.3,9.7,20.1,10.1l-10,8.8 c0,0,7.4,5.2,14.9,5.6l11.8,36.2l8.5-1.1c0,0,27-34,27.5-68.8s-1.7-54.8-1.7-54.8S214.4,304.3,209.4,303.8z" fill="url(#gradient-game-147-preset-1)"/> <path d="M143.4,316.3c0,0-14.4,38.9-20.9,69.2c-6.5,30.4-3,54.2,10.5,68.2c13.5,14.1,20.5,10.1,20.5,10.1 l4.2-7.1c0,0-17.5-28.8-21.3-47.5C132.8,390.6,144,324.4,143.4,316.3z" fill="url(#gradient-game-147-preset-1)"/> <path d="M340.3,325.4c0,0-1.8,53.1-6.8,67.8c0,0,21.7-3.6,32.2,7.6c0,0-23.1-8.2-34.1,0v2.5l-14.2,45.3 c0,0,7.1,14.2-15.7,22.3c0,0,34.8,6.7,59.7-6.5s19-32.3,19-32.3s1.8-38.6-7.8-54.2C362.9,362.2,340.3,325.4,340.3,325.4z" fill="url(#gradient-game-147-preset-3)"/> <path d="M380.8,387c0,0,7.1,32.4,4.4,39.4c0,0,66.4-27.6,80.4-83.8s14.1-88.8-6.1-88.8c-16.7,0-28.7,43.8-31.5,49.7 C428.1,303.8,417.2,367.9,380.8,387z" fill="url(#gradient-game-147-preset-3)"/> <path fill="none" stroke="#010101" stroke-width="4" stroke-miterlimit="10" d="M241.2,474.6c0,0-7.1-16.8,3.5-26.2"/> <path fill="none" stroke="#010101" stroke-width="4" stroke-miterlimit="10" d="M255.3,476c0,0-5.4-18.4,4.7-27.5"/> <path fill="none" stroke="#010101" stroke-width="4" stroke-miterlimit="10" d="M273.2,474.6c0,0-6.2-19.8,2.2-26.2"/> <path fill="none" stroke="#010101" stroke-width="4" stroke-miterlimit="10" d="M204.7,470.4c0,0-3-19,6.5-25.9"/> <path fill="none" stroke="#010101" stroke-width="4" stroke-miterlimit="10" d="M190.1,469.9c0,0-4.1-17.4,4.1-25.3"/> <path fill="none" stroke="#010101" stroke-width="4" stroke-miterlimit="10" d="M178.3,469.1c0,0-6.5-17.8,2.2-24.6"/> <path opacity="0.3" fill="#010101" d="M84,228.8c0,0,12.3,59.1,153.6,48.1 c141.4-11.1,153.3-42,153.3-42s-31.1,55.6-153.5,65.2c0,0-80.6-8.5-83.8-10.6S89.1,288.5,84,228.8z"/> <path opacity="0.3" fill="#010101" d="M148.9,303.8c0,0,33.4,28.2,85.4,24.5 c51.9-3.8,93.5-28.5,95.1-40.8c0,0-137.3,23.4-176,6.1L148.9,303.8z"/> <path opacity="0.3" fill="#010101" d="M377.7,383.8c0,0-4.7,5-18.5,6.7c-13.9,1.7-27.7-24.1-27.7-24.1 S312.6,392,289,387.3c-23.7-4.7-18.3-42-18.3-42l-10.9,15.1c0,0-18.4,9.6-35.4,13.5c-17.2,3.8-35.4-7.6-35.4-7.6 c0,7.9,16.7,12.5,16.7,12.5s-6.8,9.4-5.9,10.2c1,0.8,11.5,6.1,11.5,6.1l5,6.5c0,0-30.8,11.7-49.7,13.3c-19,1.7-26.8-7.6-26.8-7.6 c-3.2-7.6-0.5-33.6-0.5-33.6c-7.1,10.6-10.1,44.6-10.1,44.6c-9.7,0.4-12.6-13.1-12.6-13.1l-3.1-4c0.4,1.1,1.7,6.5,6,33 c5.9,35.7,38.2,33.3,38.2,33.3c8.8,7.6,66.9,5.3,66.9,5.3c17.3,8.3,66.3,0,66.3,0s63.4,6.5,82.6-11.1 C392.7,444.2,377.7,383.8,377.7,383.8z M215.6,461.6c0,0-7.1,1.1-32.4-2.3c-25.2-3.4-8.8-18.9,9.2-24.4c18-5.4,32.1,1.7,32.1,1.7 C216.6,437.8,215.6,461.6,215.6,461.6z M306,453.8c-4.7,7.1-70.2,10.6-73.5,3c-3.4-7.6,9.4-19.3,9.4-19.3 C265.1,430.9,310.5,446.7,306,453.8z" style="display: inline;"/> <path opacity="0.82" fill="#F2F2F2" d="M236.4,197.6c0,0-14.7,1.8-16.8,6.5c0,0-1.1,1.9,2,1.9 s20.8,1.3,24.3,2.6s2.8-2,1.6-3.8C246.4,203,236.4,197.6,236.4,197.6z"/> <path opacity="0.5" fill="#FFFFFF" d="M284.8,182.2c-1.8-0.2-3.8-0.1-4.7,1.8c-1,2.3,1.6,4.6,3,6 c5.3,5.3,13.7,6.7,20.9,5.5c4.8-0.8,11.4-5.5,11.7-10.9c0.1-2.4-1-1.9-2.4-0.7c-2.4,2.2-5.3,3.8-8.4,4.8 c-4.8,1.7-10.2,1.6-14.3-1.8c-1.8-1.3-3.6-2.8-5.4-4.2"/> <path opacity="0.5" fill="#FFFFFF" d="M154.7,181.1c1.6,5,8.8,7.4,13.5,7.1c3.1-0.2,5.9-1,8.5-2.4 c1.6-0.8,4-3.6,5.6-2.8c2.8,1.2,2.6,4.8,1.6,7.1c-1.3,2.6-4.1,4.6-6.8,5.4c-5.5,1.7-13.2,3.1-18.5-0.1c-3.6-2.2-5.9-5.5-6.8-9.6 c-0.4-1.6-0.2-6.7,2.6-5.3" style="display: inline;"/> <path opacity="0.5" fill="#FFFFFF" d="M174.1,74c0,0-46.8-20.4-64.7-21.5c-3.6-0.2,0,1.2,0,1.2 s47.9,25.2,46.4,33.6C155.8,87.2,167.1,75.4,174.1,74z"/> <path opacity="0.4" fill="#FFFFFF" d="M279.9,69.9c0,0,39.8-41.8,47-45.8c0,0-33.6,40.2-37.1,47.9 C289.8,71.9,283.9,69.3,279.9,69.9z"/> <path opacity="0.4" fill="#010101" d="M380.8,398.9c0,0,28.2,4.4,60.8-31.1s34-88.5,34-88.5 s18.7,64.3-54.2,131.3c0,0-38.2,22.6-40.4,19C380.8,429.7,383.6,405.9,380.8,398.9z"/> <path opacity="0.3" fill="#FFFFFF" d="M454.9,259c0,0-12.3,17.1-20.9,43.4 c-8.5,26.3-26.1,81.9-26.1,81.9l35-68.2l11.5-18.6l-1.1,12.3l10.2-17.9l5.6,6.8C469.4,298.6,474.4,249.6,454.9,259z"/> <linearGradient id="linearGradient2" gradientUnits="userSpaceOnUse" x1="1" y1="0" x2="1" y2="1"> <stop id="stop0" style="stop-color:#FFFFFF" offset="0"> </stop> <stop id="stop1" style="stop-color:#FFF1C0" offset="1"> </stop> </linearGradient> <radialGradient id="radialGradient6" gradientUnits="userSpaceOnUse" x1="0" y1="0" x2="1" y2="1.2246467991474E-16"> <stop id="stop4" style="stop-color:#43C5E3" offset="0.493"> </stop> <stop id="stop5" style="stop-color:#2BACE2" offset="0.9953"> </stop> </radialGradient> <radialGradient id="radialGradient10" gradientUnits="userSpaceOnUse" x1="0" y1="0" x2="1" y2="1.2246467991474E-16"> <stop id="stop8" style="stop-color:#43C5E3" offset="0.493"> </stop> <stop id="stop9" style="stop-color:#2BACE2" offset="0.9953"> </stop> </radialGradient> <radialGradient id="object-1-gradient-3"> <stop offset="0.493" style="stop-color:#43C5E3"> </stop> <stop offset="0.9953" style="stop-color:#2BACE2"> </stop> </radialGradient> <linearGradient id="linearGradient14" gradientUnits="userSpaceOnUse" x1="1" y1="0" x2="1" y2="1"> <stop id="stop12" style="stop-color:#FFFFFF" offset="0"> </stop> <stop id="stop13" style="stop-color:#FFF1C0" offset="1"> </stop> </linearGradient> <radialGradient id="radialGradient18" gradientUnits="userSpaceOnUse" x1="0" y1="0" x2="1" y2="1.2246467991474E-16"> <stop id="stop16" style="stop-color:#FFFFFF" offset="0"> </stop> <stop id="stop17" style="stop-color:#FFF1C0" offset="1"> </stop> </radialGradient> <radialGradient id="radialGradient22" gradientUnits="userSpaceOnUse" x1="0" y1="0" x2="1" y2="1.2246467991474E-16"> <stop id="stop20" style="stop-color:#FFFFFF" offset="0"> </stop> <stop id="stop21" style="stop-color:#FFF1C0" offset="1"> </stop> </radialGradient> <radialGradient id="radialGradient26" gradientUnits="userSpaceOnUse" x1="0" y1="0" x2="1" y2="1.2246467991474E-16"> <stop id="stop24" style="stop-color:#FFFFFF" offset="0"> </stop> <stop id="stop25" style="stop-color:#FFF1C0" offset="1"> </stop> </radialGradient> <radialGradient id="radialGradient30" gradientUnits="userSpaceOnUse" x1="0" y1="0" x2="1" y2="1.2246467991474E-16"> <stop id="stop28" style="stop-color:#FFFFFF" offset="0"> </stop> <stop id="stop29" style="stop-color:#FFF1C0" offset="1"> </stop> </radialGradient> <radialGradient id="object-1-gradient-2"> <stop offset="0" style="stop-color:#FFFFFF"> </stop> <stop offset="1" style="stop-color:#FFF1C0"> </stop> </radialGradient> <linearGradient id="linearGradient34" gradientUnits="userSpaceOnUse" x1="1" y1="0" x2="1" y2="1"> <stop id="stop32" style="stop-color:#FFFFFF" offset="0"> </stop> <stop id="stop33" style="stop-color:#FFF1C0" offset="1"> </stop> </linearGradient> <linearGradient id="linearGradient38" gradientUnits="userSpaceOnUse" x1="1" y1="0" x2="1" y2="1"> <stop id="stop36" style="stop-color:#FFFFFF" offset="0"> </stop> <stop id="stop37" style="stop-color:#FFF1C0" offset="1"> </stop> </linearGradient> <linearGradient id="linearGradient42" gradientUnits="userSpaceOnUse" x1="1" y1="0" x2="1" y2="1"> <stop id="stop40" style="stop-color:#FFFFFF" offset="0"> </stop> <stop id="stop41" style="stop-color:#FFF1C0" offset="1"> </stop> </linearGradient> <linearGradient id="object-1-gradient-1" x1="0%" y1="100%" x2="0%" y2="0%"> <stop offset="0" style="stop-color:#FFFFFF"> </stop> <stop offset="1" style="stop-color:#FFF1C0"> </stop> </linearGradient> </svg>