<svg 
 xmlns="http://www.w3.org/2000/svg"
 xmlns:xlink="http://www.w3.org/1999/xlink"
 width="83.009cm" height="45.261cm">
<defs>
<linearGradient id="PSgrad_0" x1="0%" x2="0%" y1="0%" y2="100%">
  <stop offset="1%" stop-color="rgb(98,28,250)" stop-opacity="1" />
  <stop offset="80%" stop-color="rgb(87,0,250)" stop-opacity="1" />
</linearGradient>
<linearGradient id="PSgrad_1" x1="70.711%" x2="0%" y1="0%" y2="70.711%">
  <stop offset="0%" stop-color="rgb(98,28,250)" stop-opacity="1" />
  <stop offset="69%" stop-color="rgb(87,0,250)" stop-opacity="1" />
</linearGradient>
<linearGradient id="PSgrad_2" x1="70.711%" x2="0%" y1="0%" y2="70.711%">
  <stop offset="1%" stop-color="rgb(98,28,250)" stop-opacity="1" />
  <stop offset="100%" stop-color="rgb(87,0,250)" stop-opacity="1" />
</linearGradient>

</defs>
<path fill-rule="evenodd"  fill="rgb(87, 0, 250)"
 d="M280.000,402.000 L2203.000,402.000 L2203.000,1277.807 L280.000,1283.000 L280.000,402.000 Z"/>
<path fill-rule="evenodd"  fill="rgb(95, 24, 250)"
 d="M2031.377,1162.000 C2031.377,1162.000 228.948,704.841 107.549,761.000 C-55.368,836.365 -177.637,309.879 874.714,138.711 C1927.065,-32.458 2032.300,121.917 2032.300,121.917 "/>
<path fill="url(#PSgrad_0)"
 d="M2031.377,1162.000 C2031.377,1162.000 228.948,704.841 107.549,761.000 C-55.368,836.365 -177.637,309.879 874.714,138.711 C1927.065,-32.458 2032.300,121.917 2032.300,121.917 "/>
<path fill-rule="evenodd"  fill="rgb(75, 125, 187)"
 d="M1144.400,1023.009 L1476.384,934.042 L1233.355,690.982 L1144.400,1023.009 Z"/>
<path fill="url(#PSgrad_1)"
 d="M1144.400,1023.009 L1476.384,934.042 L1233.355,690.982 L1144.400,1023.009 Z"/>
<path fill-rule="evenodd"  fill="rgb(75, 125, 187)"
 d="M2079.839,1241.366 L2266.970,1271.008 L2352.985,1102.173 L2219.014,968.185 L2050.201,1054.211 L2079.839,1241.366 Z"/>
<path fill="url(#PSgrad_2)"
 d="M2079.839,1241.366 L2266.970,1271.008 L2352.985,1102.173 L2219.014,968.185 L2050.201,1054.211 L2079.839,1241.366 Z"/>
<path fill-rule="evenodd"  fill="rgb(96, 24, 250)"
 d="M1907.844,180.000 C1997.020,180.000 2069.312,252.292 2069.312,341.469 L2069.312,719.531 C2069.312,808.708 1997.020,881.000 1907.844,881.000 C1818.667,881.000 1746.375,808.708 1746.375,719.531 L1746.375,341.469 C1746.375,252.292 1818.667,180.000 1907.844,180.000 Z"/>
<path fill-rule="evenodd"  fill="rgb(96, 25, 250)"
 d="M1437.885,0.000 L1437.896,0.000 C1527.078,0.000 1599.375,72.297 1599.375,161.479 L1599.375,539.521 C1599.375,628.703 1527.078,701.000 1437.896,701.000 L1437.885,701.000 C1348.703,701.000 1276.406,628.703 1276.406,539.521 L1276.406,161.479 C1276.406,72.297 1348.703,0.000 1437.885,0.000 Z"/>
<path fill="url(#PSgrad_2)"
 d="M1437.885,0.000 L1437.896,0.000 C1527.078,0.000 1599.375,72.297 1599.375,161.479 L1599.375,539.521 C1599.375,628.703 1527.078,701.000 1437.896,701.000 L1437.885,701.000 C1348.703,701.000 1276.406,628.703 1276.406,539.521 L1276.406,161.479 C1276.406,72.297 1348.703,0.000 1437.885,0.000 Z"/>
<path fill-rule="evenodd"  fill="rgb(96, 25, 250)"
 d="M835.979,585.000 L835.989,585.000 C925.172,585.000 997.469,657.297 997.469,746.479 L997.469,752.521 C997.469,841.703 925.172,914.000 835.989,914.000 L835.979,914.000 C746.797,914.000 674.500,841.703 674.500,752.521 L674.500,746.479 C674.500,657.297 746.797,585.000 835.979,585.000 Z"/>
<path fill="url(#PSgrad_0)"
 d="M835.979,585.000 L835.989,585.000 C925.172,585.000 997.469,657.297 997.469,746.479 L997.469,752.521 C997.469,841.703 925.172,914.000 835.989,914.000 L835.979,914.000 C746.797,914.000 674.500,841.703 674.500,752.521 L674.500,746.479 C674.500,657.297 746.797,585.000 835.979,585.000 Z"/>
</svg>