<svg xmlns="http://www.w3.org/2000/svg" viewBox="0 0 500 500"><defs><radialGradient id="a"><stop offset="0%" stop-color="#fff"/><stop offset="100%" stop-color="#fff1c0"/></radialGradient><radialGradient id="b"><stop offset="49%" stop-color="#43c5e3"/><stop offset="99%" stop-color="#2bace2"/></radialGradient><linearGradient id="c" x1="1" y1="0" x2="1" y2="1"><stop offset="0%" stop-color="#fff"/><stop offset="100%" stop-color="#fff1c0"/></linearGradient></defs><path fill="#010101" d="M113.4 453.5S16 463 48.7 482.7c32.6 19.7 268.1 26.2 334.7-10-.2-.1-2.7-25-270-19.2z"/><path fill="#010101" stroke="#010101" stroke-miterlimit="10" d="M81.9 242.6l5 10s19.2 35.6 62.1 37.1c0 0-18.3 53.1-27.3 77.4s-29.9 101.1 45.4 104.2c0 0 38.6 4 54.3 3.5s34.4 7.7 60.7.1c0 0 59.6 7.6 82.4-6.1 22.7-13.7 16.1-34.4 16.1-34.4s59.7-22.2 84.9-77.8c25.2-55.6 14.2-129.5-15.1-103.2-29.3 26.3-32.4 84.4-45.5 102.6-13.1 18.3-24.3 26.8-24.3 26.8s-27.3-41-32.8-51.1-15.1-50.5-15.1-50.5 47.8-17.2 59-43.7l3.1-6-.8-9.1s-20.7-46.2-20.7-67.5-9.6-29.8-9.6-29.8 7.6-67.8 5-82.4C366.3 28 353.7-5.9 342 2.6s-75.4 68.7-75.4 68.7-41-6.6-76.4 1.6c-1.6.4-64.3-30.4-93.5-27.3 0 0-4.6 4-2.5 19.2s20.3 63.2 20.3 63.2-23.9 51.1-29.3 69.8l-5 26.4 1.7 18.4z"/><path stroke="#010101" stroke-miterlimit="10" d="M233.4 130s-11.9 49.7-24 67.9c-12.1 18.3-48.5 29.9-57.7 37.6-9.1 7.6-24 23.3 2.3 51.9 8.3 9.1 102.9 11.8 123.6 6.5s64-13.9 58.7-29.2-31.1-26.5-40-29.2-35.1-16.1-46-47.7-16.9-57.8-16.9-57.8z" fill="url(#a)"/><path fill="#010101" d="M235.1 207.8s-17.5-1.3-14.1 3.2c3.4 4.6 10 7.4 10 7.4s15.4-4 15-7.1-10.9-3.5-10.9-3.5z"/><path fill="#010101" d="M188.9 246s2.3 15.1 7.6 7.2c5.3-7.9 7.1-16.7 35.7-14.9 28.5 1.8 46.2 19.5 46.2 19.5s6.8-4.2-12.1-14.4c-19-10.2-36.8-9.9-36.8-9.9l2.6-15.4h-3l-3.2 14.7s-30.2 2.3-37 13.2z"/><path fill="#FFF" d="M192.7 176.4c.1.7.1 1.6.1 2.4 0 14.5-11.7 26.2-26.2 26.2s-26.2-11.7-26.2-26.2c0-1.1.1-2.2.2-3.2l-18-.4s-4.2 31.1 40.8 35.3c43.5 4 50.9-33.9 50.9-33.9l-21.6-.2zm147.6-1h-15.9c0 15.5-12.6 28.1-28.1 28.1s-28.1-12.6-28.1-28.1h-15.9s1.6 35.2 45.8 35.6 42.2-35.6 42.2-35.6z"/><path d="M144.6 176.4s-1.1 25 22.9 25 22.2-25 22.2-25h-16.3s1.8 7.4-6.2 8.9c-8 1.4-7.1-8.9-7.1-8.9" fill="url(#b)"/><path stroke="#010101" stroke-miterlimit="10" d="M272 175.4s1.8 24.6 24.6 24.6c22.9 0 24.4-24.6 24.4-24.6h-19s1.1 9.1-5.8 9.4c-6.8.1-4.9-9.4-4.9-9.4H272z" fill="url(#b)"/><path d="M186.1 74.6s-72.8-29.8-87.2-25.8c0 0 38.2 41 40.7 63.7 0 0 24.1-33.1 46.5-37.9zm118.1 6S333.8 12 343.6 9c0 0 14.2 14.7 17.2 29.8 0 0-5.9-34.7-13.9-33.6C339 6.3 274.2 72 274.2 72s26.4 4.7 30 8.6z" fill="#522311"/><path stroke="#010101" stroke-miterlimit="10" d="M390.2 230.1l-.7-8.3s-18.9-40.6-18.9-50.5c0-9.9-1.6-36.4-11.4-46.2-9.9-9.9-56.8-48.3-101.3-51.9s-69.8 0-100.1 25.8-43.2 38-43.2 38-19.3 36.5-22.3 52.1-7.2 33.2-7.2 33.2.7 15.5 2.6 24.6l1.6 3.8s16.3 32.2 61 36.8c0 0-15.4-15-15.4-31.2-58.5-19.7-19.8-88.5-19.8-88.5h99.6c4.7-11.4 17.3-43.5 18.3-52.4 0 0 11.5 39 17.4 51.8l98.4 1.6s25.8 32.8 16 53.1-33.6 27.6-33.6 27.6c7.8 6.1 12.9 14.2 9.4 23.8 0 0 38.4-21.7 45.8-32.2 3.9-6.5 3.8-11 3.8-11z" fill="url(#a)"/><path fill="none" stroke="#010101" stroke-width="4" stroke-miterlimit="10" d="M116.1 224s-32.8-21.9-67.8-11.1m74.2 25S99.9 215.2 45.3 251m80.1-7S67 252.9 59 287.4m295.7-70.5s48.9-.5 72.3 17.9m-80.3-3.9s62.2 1.9 67.3 34.8M340.3 241s37.1-5 50.5 38.4"/><path opacity=".14" fill="#010101" d="M113.8 150.3s49.4-65.5 129.1-55.7 117.8 60.5 117.8 60.5-17.5-75.2-107.4-84.4-122.6 55.9-139.5 79.6z"/><path fill="none" stroke="#010101" stroke-width="4" stroke-miterlimit="10" d="M304.7 130s54.7-46.2 94.5-38.2m-81.7 40.4s55.9-28.8 81.7-10.1m-64.6 19.7s43.5-12.1 64.7 2m-267.5 8.7s-34.4-18.3-63.2 5.5m78.8-17.6s-30.2-31.1-67.4-16.3m12.2-18.7s55.9-1.1 75 35"/><path stroke="#010101" stroke-width="4" stroke-miterlimit="10" d="M151 303.7s-31.8 106.2 11.4 150.2c0 0 3.4-16.7 27.5-24.3 24.1-7.6 37 2.3 37 2.3l-12.5-35.7c-9.6-3.6-9.9-3.4-17.9-9.9l9.1-7.6s-12.1-5.3-16.7-11.4l9.9-6.8-8.9-15.1 11.2-12.1 3.8-31.8s-45.2-1.1-50.1-7.9l-3.8 10.1zm116.8-.8s15.1 88.8-26.5 127.5c0 0 50.1-9.7 69.8 18.3 0 0 27.6-66.6 25.8-112.2s-11.4-48.9-11.4-48.9-40.3 13.8-57.7 15.3z" fill="url(#a)"/><path d="M163.5 458s6.1-17.8 25-24.3c19-6.5 34.2-4.4 44 1.7 0 0-14.3 22.2-10.9 35.4 0 0-51.2-1.1-58-3.4s-.1-9.4-.1-9.4z" fill="url(#a)"/><path d="M241.2 432.2s-19.7 18.3-16.3 38.7c0 0 41.1 11.2 75.4-4.9 25.8-12.1-6.5-29.2-15.1-31.1-8.7-2-44-2.7-44-2.7zm-31.8-128.4l-4.6 29.4-10 11.7 8.8 15.6-11.3 7.4s11.3 9.7 20.1 10.1l-10 8.8s7.4 5.2 14.9 5.6l11.8 36.2 8.5-1.1s27-34 27.5-68.8-1.7-54.8-1.7-54.8-49 .4-54-.1zm-66 12.5s-14.4 38.9-20.9 69.2c-6.5 30.4-3 54.2 10.5 68.2 13.5 14.1 20.5 10.1 20.5 10.1l4.2-7.1s-17.5-28.8-21.3-47.5c-3.6-18.6 7.6-84.8 7-92.9z" fill="url(#a)"/><path d="M340.3 325.4s-1.8 53.1-6.8 67.8c0 0 21.7-3.6 32.2 7.6 0 0-23.1-8.2-34.1 0v2.5l-14.2 45.3s7.1 14.2-15.7 22.3c0 0 34.8 6.7 59.7-6.5s19-32.3 19-32.3 1.8-38.6-7.8-54.2c-9.7-15.7-32.3-52.5-32.3-52.5zm40.5 61.6s7.1 32.4 4.4 39.4c0 0 66.4-27.6 80.4-83.8s14.1-88.8-6.1-88.8c-16.7 0-28.7 43.8-31.5 49.7.1.3-10.8 64.4-47.2 83.5z" fill="url(#c)"/><path fill="none" stroke="#010101" stroke-width="4" stroke-miterlimit="10" d="M241.2 474.6s-7.1-16.8 3.5-26.2m10.6 27.6s-5.4-18.4 4.7-27.5m13.2 26.1s-6.2-19.8 2.2-26.2m-70.7 22s-3-19 6.5-25.9m-21.1 25.4s-4.1-17.4 4.1-25.3m-15.9 24.5s-6.5-17.8 2.2-24.6"/><path opacity=".3" fill="#010101" d="M84 228.8s12.3 59.1 153.6 48.1c141.4-11.1 153.3-42 153.3-42s-31.1 55.6-153.5 65.2c0 0-80.6-8.5-83.8-10.6s-64.5-1-69.6-60.7z"/><path opacity=".3" fill="#010101" d="M148.9 303.8s33.4 28.2 85.4 24.5c51.9-3.8 93.5-28.5 95.1-40.8 0 0-137.3 23.4-176 6.1l-4.5 10.2zm228.8 80s-4.7 5-18.5 6.7c-13.9 1.7-27.7-24.1-27.7-24.1S312.6 392 289 387.3c-23.7-4.7-18.3-42-18.3-42l-10.9 15.1s-18.4 9.6-35.4 13.5c-17.2 3.8-35.4-7.6-35.4-7.6 0 7.9 16.7 12.5 16.7 12.5s-6.8 9.4-5.9 10.2c1 .8 11.5 6.1 11.5 6.1l5 6.5s-30.8 11.7-49.7 13.3c-19 1.7-26.8-7.6-26.8-7.6-3.2-7.6-.5-33.6-.5-33.6-7.1 10.6-10.1 44.6-10.1 44.6-9.7.4-12.6-13.1-12.6-13.1l-3.1-4c.4 1.1 1.7 6.5 6 33 5.9 35.7 38.2 33.3 38.2 33.3 8.8 7.6 66.9 5.3 66.9 5.3 17.3 8.3 66.3 0 66.3 0s63.4 6.5 82.6-11.1c19.2-17.5 4.2-77.9 4.2-77.9zm-162.1 77.8s-7.1 1.1-32.4-2.3c-25.2-3.4-8.8-18.9 9.2-24.4 18-5.4 32.1 1.7 32.1 1.7-7.9 1.2-8.9 25-8.9 25zm90.4-7.8c-4.7 7.1-70.2 10.6-73.5 3-3.4-7.6 9.4-19.3 9.4-19.3 23.2-6.6 68.6 9.2 64.1 16.3z"/><path opacity=".82" fill="#F2F2F2" d="M236.4 197.6s-14.7 1.8-16.8 6.5c0 0-1.1 1.9 2 1.9s20.8 1.3 24.3 2.6 2.8-2 1.6-3.8c-1.1-1.8-11.1-7.2-11.1-7.2z"/><path opacity=".5" fill="#FFF" d="M284.8 182.2c-1.8-.2-3.8-.1-4.7 1.8-1 2.3 1.6 4.6 3 6 5.3 5.3 13.7 6.7 20.9 5.5 4.8-.8 11.4-5.5 11.7-10.9.1-2.4-1-1.9-2.4-.7-2.4 2.2-5.3 3.8-8.4 4.8-4.8 1.7-10.2 1.6-14.3-1.8-1.8-1.3-3.6-2.8-5.4-4.2m-130.5-1.6c1.6 5 8.8 7.4 13.5 7.1 3.1-.2 5.9-1 8.5-2.4 1.6-.8 4-3.6 5.6-2.8 2.8 1.2 2.6 4.8 1.6 7.1-1.3 2.6-4.1 4.6-6.8 5.4-5.5 1.7-13.2 3.1-18.5-.1-3.6-2.2-5.9-5.5-6.8-9.6-.4-1.6-.2-6.7 2.6-5.3M174.1 74s-46.8-20.4-64.7-21.5c-3.6-.2 0 1.2 0 1.2s47.9 25.2 46.4 33.6c0-.1 11.3-11.9 18.3-13.3z"/><path opacity=".4" fill="#FFF" d="M279.9 69.9s39.8-41.8 47-45.8c0 0-33.6 40.2-37.1 47.9 0-.1-5.9-2.7-9.9-2.1z"/><path opacity=".4" fill="#010101" d="M380.8 398.9s28.2 4.4 60.8-31.1 34-88.5 34-88.5 18.7 64.3-54.2 131.3c0 0-38.2 22.6-40.4 19-.2.1 2.6-23.7-.2-30.7z"/><path opacity=".3" fill="#FFF" d="M454.9 259s-12.3 17.1-20.9 43.4c-8.5 26.3-26.1 81.9-26.1 81.9l35-68.2 11.5-18.6-1.1 12.3 10.2-17.9 5.6 6.8c.3-.1 5.3-49.1-14.2-39.7z"/></svg>