<?xml version="1.0" encoding="iso-8859-1"?>
<!-- Generator: Adobe Illustrator 19.0.0, SVG Export Plug-In . SVG Version: 6.00 Build 0)  -->
<svg version="1.1" id="Capa_1" xmlns="http://www.w3.org/2000/svg" xmlns:xlink="http://www.w3.org/1999/xlink" x="0px" y="0px"
	 viewBox="0 0 512 512" style="enable-background:new 0 0 512 512;" xml:space="preserve">
<g>
	<g>
		<path d="M121,121v270h270V121H121z M361,361H151V151h210V361z"/>
	</g>
</g>
<g>
	<g>
		<path d="M211,211v90h90v-90H211z M271,271h-30v-30h30V271z"/>
	</g>
</g>
<g>
	<g>
		<path d="M512,151v-30h-61V61h-60V0h-30v61h-30V0h-30v61h-30V0h-30v61h-30V0h-30v61h-30V0h-30v61H61v60H0v30h61v30H0v30h61v30H0v30
			h61v30H0v30h61v30H0v30h61v60h60v61h30v-61h30v61h30v-61h30v61h30v-61h30v61h30v-61h30v61h30v-61h60v-60h61v-30h-61v-30h61v-30
			h-61v-30h61v-30h-61v-30h61v-30h-61v-30H512z M421,421H91V91h330V421z"/>
	</g>
</g>
<g>
</g>
<g>
</g>
<g>
</g>
<g>
</g>
<g>
</g>
<g>
</g>
<g>
</g>
<g>
</g>
<g>
</g>
<g>
</g>
<g>
</g>
<g>
</g>
<g>
</g>
<g>
</g>
<g>
</g>
</svg>
