<svg id="Capa_1" enable-background="new 0 0 510.368 510.368" height="512" viewBox="0 0 510.368 510.368" width="512" xmlns="http://www.w3.org/2000/svg"><path d="m235.375 315.256c12.286-12.286 12.286-32.276 0-44.561-12.286-12.286-32.276-12.286-44.562 0-12.285 12.285-12.285 32.275.001 44.561 12.286 12.285 32.276 12.286 44.561 0z"/><path d="m362.091 398.644c-.228-.923-19.693-83.871 39.132-163.58l-125.981-125.981c-29.94 22.211-63.649 35.842-100.609 40.607-36.542 4.712-62.791-1.462-63.011-1.515-7.849-1.939-15.822 2.691-18.028 10.469l-93.493 329.633 160.529-163.213c-14.483-23.681-11.503-55.109 8.97-75.582 23.983-23.983 63.005-23.983 86.988 0s23.983 63.005 0 86.988c-20.174 20.174-50.989 23.372-74.543 9.605l-161.592 164.293 331.16-93.692c7.783-2.203 12.418-10.179 10.478-18.032z"/><path d="m434.74 226.155-150.629-150.628c-5.858-5.858-6.272-14.942-.924-20.289l51.483-51.483c5.347-5.347 14.431-4.933 20.289.924l150.628 150.628c5.858 5.858 6.272 14.942.924 20.289l-51.483 51.483c-5.347 5.348-14.431 4.934-20.288-.924z"/></svg>