<svg id="Capa_1" enable-background="new 0 0 511.75 511.75" height="512" viewBox="0 0 511.75 511.75" width="512" xmlns="http://www.w3.org/2000/svg"><path d="m240.914 197.448h29.923v29.923h-29.923z"/><path d="m240.914 317.14h29.923v29.923h-29.923z"/><path d="m240.914 257.294h29.923v29.923h-29.923z"/><path d="m59.752 317.14h76.867v29.923h-76.867z"/><path d="m59.752 376.986h76.867v29.923h-76.867z"/><path d="m375.131 317.14h76.867v29.923h-76.867z"/><path d="m375.131 376.986h76.867v29.923h-76.867z"/><path d="m450.073 197.301h-104.884v-57.62l-89.314-94.711-89.314 94.711v57.62h-104.884l-61.677 64.584v204.896h511.75v-204.896zm-12.833 30 28.607 29.955h-120.658v-29.955zm-135.179-89.628h-92.371l46.185-48.977zm-227.551 89.628h92.051v29.955h-120.658zm-44.51 209.48v-149.525h136.561v149.525zm285.189 0h-29.973v-59.794h-58.682v59.794h-29.973v-269.108h118.628zm30 0v-149.525h136.56v149.525z"/></svg>